<svg width="55" height="63" viewBox="0 0 55 63" fill="none" xmlns="http://www.w3.org/2000/svg">
<g clip-path="url(#clip0_1_2)">
<path d="M52.84 21.4503C51.3626 19.6598 49.2764 18.5519 46.9657 18.3306C44.6548 18.109 42.3964 18.8012 40.6058 20.2785C39.6658 21.0542 38.9162 21.9987 38.382 23.0544L36.2835 22.224C36.8512 21.4062 37.5952 20.5506 38.447 19.7574C40.2124 18.1132 42.1514 17.0061 43.7669 16.7198C43.8744 16.7007 43.9694 16.6384 44.0296 16.5472C44.1373 16.3842 44.307 16.1978 44.4567 16.0334C44.7837 15.6743 45.0926 15.3351 44.7966 15.0005C44.7208 14.9149 44.6121 14.8663 44.4986 14.8663C44.4906 14.8663 44.4823 14.8666 44.4743 14.867C41.6693 15.038 37.6864 16.3538 34.9198 19.5344C34.4131 20.1169 33.9813 20.6549 33.6161 21.1683L25.4414 17.9335C24.9789 17.3394 24.3292 16.8871 23.9455 16.8529C23.8836 16.8469 23.8022 16.8676 23.7079 16.9058C23.9088 16.4016 24.1061 15.8014 24.2365 15.0801C24.4795 13.7351 24.5115 12.6073 24.8972 12.5186C25.61 12.3548 25.5325 12.719 25.6753 12.1978C25.8882 11.4207 24.8714 10.5003 25.168 9.83174C25.387 9.33833 25.6019 8.98178 25.7958 8.71513C26.517 8.85258 27.1508 8.96733 27.7696 9.37211C28.4205 8.76917 28.9643 7.87162 28.843 7.19602C28.7181 6.5001 27.3723 6.53346 27.6499 5.28123C27.8323 4.45854 28.995 4.20841 29.7317 4.22361C30.1404 4.23161 30.0072 2.46191 29.5193 2.18131C28.9036 1.82728 23.5021 -0.0472824 21.6808 1.79881C20.6624 2.83101 20.1736 5.57929 21.3365 6.57499C21.4689 6.6883 21.5978 6.7929 21.7252 6.89363C21.5592 6.99183 21.3779 7.07456 21.0909 7.10343C20.4583 7.16713 20.107 6.89067 19.8339 7.11454C19.5568 7.34147 20.0325 7.62244 19.8186 7.99226C19.4276 8.6681 19.0677 7.74318 17.7838 9.01386C17.187 9.60447 17.0379 10.7353 16.4483 12.1521C15.501 14.4286 14.6702 13.9907 13.5795 17.4969C13.3123 18.3559 14.4525 17.9337 16.5676 18.9695C15.5364 20.9219 14.8684 22.7712 15.1838 23.928C15.5722 25.3521 18.3301 27.5722 19.7612 28.8372C19.8575 28.9223 19.96 29.0307 20.0683 29.1567C16.13 32.9898 9.26828 35.8067 0.113283 42.6466C-0.317927 43.3432 0.589954 44.498 0.994554 44.5789C6.38085 40.0343 12.8596 38.5734 19.5616 39.054C18.6775 39.6067 17.9028 40.0703 17.2648 40.4472L17.6021 39.5849L15.3015 40.2966L4.66751 43.6409L3.39852 45.1052L4.0089 46.8169L5.91809 47.1478L16.2621 43.0113L16.3604 42.76C19.7046 41.8136 20.3239 42.6984 20.6954 43.7148L19.0554 45.4644C16.2131 44.3551 12.8676 44.7728 10.3519 46.8486C6.6559 49.8985 6.1301 55.3868 9.1801 59.0826C10.8962 61.1623 13.3842 62.2382 15.8907 62.2382C17.8387 62.238 19.798 61.5882 21.4144 60.2543C23.2049 58.777 24.3128 56.6907 24.5341 54.3799C24.7282 52.3533 24.2197 50.367 23.0951 48.7013L25.8397 45.3739C25.9643 45.4113 26.0803 45.4236 26.1858 45.4066C26.5765 45.3439 27.1572 44.9064 27.8209 44.2525C27.9487 44.4945 28.2072 44.6483 28.4892 44.6217C28.8661 44.5861 29.1419 44.2419 29.1052 43.8528C29.0924 43.7175 29.0418 43.596 28.9677 43.4947C30.2114 43.6879 31.2214 43.7287 31.3049 43.4462C31.6479 42.2872 31.0035 41.7869 30.2241 41.447C30.6587 40.8747 31.0794 40.2882 31.4624 39.7227C32.8402 38.4319 33.8595 37.2327 34.0224 36.4986C34.3614 34.9702 33.084 32.5686 31.8612 31.187C31.9502 30.2688 32.0577 29.2157 32.1605 28.1664C32.3304 28.9655 32.678 29.9641 33.0453 31.0142C33.2592 31.6257 33.4803 32.2579 33.6629 32.8462C33.7069 32.9881 33.8263 33.0937 33.9725 33.12C33.996 33.124 34.0196 33.126 34.0431 33.126C34.1652 33.126 34.2821 33.0698 34.3582 32.971C34.4278 32.8808 34.5131 32.8072 34.6033 32.7293C34.8582 32.5091 35.2433 32.1765 34.9848 31.4733C33.8709 28.4429 34.715 25.8608 35.1207 24.6199C35.1709 24.4661 35.2143 24.3334 35.2492 24.216C35.2669 24.1565 35.2882 24.0951 35.3096 24.0337L37.701 24.8863C37.5995 25.2988 37.5273 25.7214 37.486 26.1521C37.2648 28.4629 37.9566 30.7215 39.434 32.512C40.9115 34.3024 42.9976 35.4103 45.3083 35.6317C45.5908 35.6587 45.8725 35.6722 46.1526 35.6722C48.1642 35.6722 50.0967 34.9807 51.6682 33.6838C53.4586 32.2064 54.5666 30.1201 54.788 27.8094C55.0093 25.4986 54.3174 23.24 52.84 21.4495L52.84 21.4503ZM32.527 23.0673C32.5268 23.0593 32.5266 23.0504 32.5264 23.0423L32.5354 23.0453C32.5324 23.0523 32.5294 23.0597 32.5264 23.067L32.527 23.0673ZM26.0266 22.6929C25.045 23.0372 24.16 23.5084 23.5542 24.1078C22.7192 23.2977 22.0664 22.703 21.8893 22.3828C21.9581 22.3778 22.019 22.3581 22.0714 22.3198C22.3521 22.1148 22.1025 21.6157 22.4607 21.3399C23.0468 20.8888 24.085 21.9387 24.7604 21.5233C25.0671 21.3346 25.2401 20.8795 25.2387 20.4441L26.9575 21.0569L26.0266 22.6929L26.0266 22.6929ZM18.8641 41.0389C19.4723 40.6726 20.163 40.248 20.9179 39.7672C21.3029 40.3528 21.8232 41.12 22.3967 41.9L21.6769 42.6679C21.2179 41.7903 20.456 41.0796 18.8641 41.039L18.8641 41.0389ZM22.7398 45.6033C22.815 45.5917 22.8925 45.5771 22.9739 45.5568C23.4409 45.4403 24.082 45.1424 24.8215 44.7207C24.8571 44.7521 24.8924 44.7827 24.9275 44.8123L22.4301 47.8401C22.1449 47.5131 21.8404 47.2124 21.5192 46.9385L22.7399 45.6033L22.7398 45.6033ZM20.7446 49.5404C20.7922 49.598 20.8372 49.6572 20.8826 49.7161L18.3507 52.7857C18.254 52.4737 18.0972 52.1746 17.8764 51.9071C17.7313 51.7312 17.5663 51.5822 17.3895 51.4551L19.9065 48.7022C20.2061 48.9509 20.4878 49.2293 20.7446 49.5404V49.5404ZM22.1571 54.1524C21.9966 55.8282 21.1931 57.3412 19.8947 58.4126C17.2142 60.6244 13.2342 60.2431 11.0226 57.5628C8.8108 54.8825 9.1921 50.9024 11.8724 48.6905C13.0447 47.7231 14.465 47.252 15.878 47.252C16.3362 47.252 16.7935 47.3019 17.2412 47.4002L13.4245 51.472L13.812 52.0115C13.1183 52.9434 13.1182 54.2599 13.8907 55.1961C14.7989 56.2967 16.4274 56.4527 17.528 55.5445C17.8581 55.2721 18.1014 54.9343 18.2583 54.566L21.4824 50.6572C22.0365 51.7238 22.2744 52.9277 22.1571 54.1525L22.1571 54.1524ZM52.4111 27.5824C52.2506 29.2581 51.4472 30.771 50.1487 31.8425C48.8502 32.9139 47.2131 33.4153 45.5366 33.2551C43.8609 33.0945 42.348 32.2911 41.2766 30.9927C40.2052 29.6943 39.7035 28.0563 39.864 26.3806C39.8862 26.1487 39.922 25.9203 39.9684 25.6953L43.5542 26.9737C43.5522 27.5558 43.7453 28.1419 44.1448 28.626C45.053 29.7266 46.6815 29.8826 47.7821 28.9744C48.8827 28.0662 49.0387 26.4377 48.1305 25.3371C47.2222 24.2365 45.5938 24.0805 44.4932 24.9887C44.3645 25.0949 44.25 25.2117 44.1473 25.3356L40.6167 23.9385C40.9955 23.2516 41.5033 22.6349 42.1265 22.1206C43.2662 21.1801 44.6675 20.6786 46.1263 20.6786C46.3294 20.6786 46.5338 20.6886 46.7386 20.708C48.4143 20.8685 49.9272 21.672 50.9986 22.9704C52.07 24.2688 52.5717 25.9068 52.4112 27.5825L52.4111 27.5824Z" fill="#555555"/>
</g>
<defs>
<clipPath id="clip0_1_2">
<rect width="55.0002" height="63" fill="white"/>
</clipPath>
</defs>
</svg>
