<svg width="400" height="400" viewBox="0 0 400 400" fill="none" xmlns="http://www.w3.org/2000/svg">
<rect width="400" height="400" rx="200" fill="white"/>
<path d="M201.41 46.0946C164.837 44.8335 128.268 56.1832 98 80.1438L118.177 91.4934C142.139 73.8384 172.403 66.2719 201.41 67.5329V46.0946Z" fill="url(#paint0_linear_1_12)"/>
<path d="M308.601 94.0156C283.378 67.5329 250.59 51.1388 215.281 47.3556V68.794C245.549 73.8383 272.032 87.7102 293.469 109.149L308.601 94.0156Z" fill="url(#paint1_linear_1_12)"/>
<path d="M354 197.424C352.74 164.636 340.129 131.848 318.691 104.104L303.555 119.237C321.212 143.198 331.302 169.68 332.563 197.424H354Z" fill="url(#paint2_linear_1_12)"/>
<path d="M318.691 305.877C340.129 278.133 352.74 245.345 354 212.557H332.563C331.302 240.301 321.212 266.784 303.555 290.744L318.691 305.877Z" fill="url(#paint3_linear_1_12)"/>
<path d="M215.281 362.626C249.33 358.843 283.378 342.448 308.601 315.966L293.469 300.833C272.032 323.532 244.284 337.404 215.281 341.187V362.626Z" fill="url(#paint4_linear_1_12)"/>
<path d="M98 329.838C128.268 353.798 164.837 365.148 201.41 363.887V342.448C172.403 343.71 143.399 336.143 118.177 318.488L98 329.838Z" fill="url(#paint5_linear_1_12)"/>
<path d="M195.651 117.344C209.13 117.344 221.57 119.639 232.972 124.23C244.374 128.673 254.149 134.893 262.296 142.891C270.588 150.888 277.03 160.292 281.622 171.104C286.215 181.767 288.509 193.318 288.509 205.759C288.509 218.199 286.215 229.825 281.622 240.636C277.03 251.299 270.588 260.629 262.296 268.627C254.149 276.624 244.374 282.918 232.972 287.509C221.57 291.952 209.13 294.174 195.651 294.174C182.028 294.174 169.51 291.952 158.108 287.509C146.851 282.918 137.154 276.624 129.007 268.627C120.86 260.629 114.494 251.299 109.902 240.636C105.31 229.825 103.015 218.199 103.015 205.759C103.015 193.318 105.31 181.767 109.902 171.104C114.494 160.292 120.86 150.888 129.007 142.891C137.154 134.893 146.851 128.673 158.108 124.23C169.51 119.639 182.028 117.344 195.651 117.344ZM195.651 159.552C189.281 159.552 183.211 160.736 177.435 163.106C171.809 165.328 166.845 168.512 162.551 172.659C158.258 176.805 154.849 181.693 152.332 187.32C149.816 192.948 148.556 199.094 148.556 205.759C148.556 212.423 149.816 218.569 152.332 224.197C154.849 229.825 158.258 234.712 162.551 238.859C166.845 243.006 171.809 246.263 177.435 248.633C183.211 250.855 189.281 251.965 195.651 251.965C202.021 251.965 208.019 250.855 213.645 248.633C219.421 246.263 224.458 243.006 228.751 238.859C233.194 234.712 236.676 229.825 239.192 224.197C241.708 218.569 242.969 212.423 242.969 205.759C242.969 199.094 241.708 192.948 239.192 187.32C236.676 181.693 233.194 176.805 228.751 172.659C224.458 168.512 219.421 165.328 213.645 163.106C208.019 160.736 202.021 159.552 195.651 159.552Z" fill="black"/>
<defs>
<linearGradient id="paint0_linear_1_12" x1="226" y1="46" x2="226" y2="363.981" gradientUnits="userSpaceOnUse">
<stop stop-color="#1E90FF"/>
<stop offset="1" stop-color="#FF1E56"/>
</linearGradient>
<linearGradient id="paint1_linear_1_12" x1="226" y1="46" x2="226" y2="363.981" gradientUnits="userSpaceOnUse">
<stop stop-color="#1E90FF"/>
<stop offset="1" stop-color="#FF1E56"/>
</linearGradient>
<linearGradient id="paint2_linear_1_12" x1="226" y1="46" x2="226" y2="363.981" gradientUnits="userSpaceOnUse">
<stop stop-color="#1E90FF"/>
<stop offset="1" stop-color="#FF1E56"/>
</linearGradient>
<linearGradient id="paint3_linear_1_12" x1="226" y1="46" x2="226" y2="363.981" gradientUnits="userSpaceOnUse">
<stop stop-color="#1E90FF"/>
<stop offset="1" stop-color="#FF1E56"/>
</linearGradient>
<linearGradient id="paint4_linear_1_12" x1="226" y1="46" x2="226" y2="363.981" gradientUnits="userSpaceOnUse">
<stop stop-color="#1E90FF"/>
<stop offset="1" stop-color="#FF1E56"/>
</linearGradient>
<linearGradient id="paint5_linear_1_12" x1="226" y1="46.0001" x2="226" y2="363.981" gradientUnits="userSpaceOnUse">
<stop stop-color="#1E90FF"/>
<stop offset="1" stop-color="#FF1E56"/>
</linearGradient>
</defs>
</svg>
